<svg xmlns="http://www.w3.org/2000/svg" width="24" height="24" viewBox="0 0 24 24" fill="none" aria-hidden="true">
  <title>Python</title>
  <path fill="#05b87d" fill-rule="evenodd" d="M13.9 2.5c.9 0 1.6.7 1.6 1.6v1.9h-3.2V4.1c0-2.1 1.7-3.8 3.8-3.8h2.2c1 0 1.8.5 2.3 1.3.4.7.7 1.6.7 2.5v2.6c0 1.7-.9 2.6-2.6 2.6H9.2c-1.7 0-2.6-.9-2.6-2.6V6.9c0-1.2 1-2.2 2.2-2.2h2.6c.7 0 1.3-.6 1.3-1.3v-.2c0-.7-.6-1.3-1.3-1.3H9.2c-2.2 0-4 1.8-4 4v2.6c0 2.4 1.8 4.4 4.1 4.6v1.8c-2.7-.3-4.7-2.5-4.7-5.2v-1.4c0-2.2 1.8-4 4-4h2.6c.7 0 1.3.6 1.3 1.3v1.3h3.2V6.9c0-1-.5-1.9-1.3-2.3-.8-.5-1.8-.5-2.6 0-.8.4-1.3 1.3-1.3 2.3v1.9h-3.2V4.1c0-.9.7-1.6 1.6-1.6z" />
  <path fill="#05b87d" fill-rule="evenodd" d="M10.1 21.5c-.9 0-1.6-.7-1.6-1.6v-1.9h3.2v1.3c0 2.1-1.7 3.8-3.8 3.8h-2.2c-1 0-1.8-.5-2.3-1.3-.4-.7-.7-1.6-.7-2.5v-2.6c0-1.7.9-2.6 2.6-2.6h2.6c1.7 0 2.6.9 2.6 2.6v1.3c0 1.2-1 2.2-2.2 2.2h-2.6c-.7 0-1.3.6-1.3 1.3v.2c0 .7.6 1.3 1.3 1.3h2.6c2.2 0 4-1.8 4-4v-2.6c0-2.4-1.8-4.4-4.1-4.6v-1.8c2.7.3 4.7 2.5 4.7 5.2v1.4c0 2.2-1.8 4-4 4h-2.6c-.7 0-1.3-.6-1.3-1.3v-1.3h-3.2v1.3c0 1 .5 1.9 1.3 2.3.8.5 1.8.5 2.6 0 .8-.4 1.3-1.3 1.3-2.3z" />
  <circle cx="12" cy="12" r="1.5" fill="#05b87d" />
</svg>
